ffmpeg started on 2016-12-06 at 04:50:51
Report written to "Output/x264/results/ffmpeg/sintelfast4000k.log"
Command line:
Tools/ffmpeg/ffmpeg -benchmark -y -i Input/y4m/sintel.y4m -c:v libx264 -preset fast -b:v 4000k -an Output/x264/encoded/sintelfast4000k.mkv
ffmpeg version N-82227-gdb23fde Copyright (c) 2000-2016 the FFmpeg developers
  built with gcc 5.4.0 (Ubuntu 5.4.0-6ubuntu1~16.04.2) 20160609
  configuration: --prefix=/home/jaroslav/ffmpeg_build --pkg-config-flags=--static --extra-cflags=-I/home/jaroslav/ffmpeg_build/include --extra-ldflags=-L/home/jaroslav/ffmpeg_build/lib --bindir=/home/jaroslav/bin --enable-gpl --enable-libass --enable-libfdk-aac --enable-libfreetype --enable-libmp3lame --enable-libopus --enable-libtheora --enable-libvorbis --enable-libvpx --enable-libx264 --enable-libx265 --enable-nvenc --enable-libmfx --enable-libxvid --enable-libgsm --enable-libopencore-amrnb --enable-version3 --enable-nonfree
  libavutil      55. 35.100 / 55. 35.100
  libavcodec     57. 66.101 / 57. 66.101
  libavformat    57. 57.100 / 57. 57.100
  libavdevice    57.  2.100 / 57.  2.100
  libavfilter     6. 66.100 /  6. 66.100
  libswscale      4.  3.100 /  4.  3.100
  libswresample   2.  4.100 /  2.  4.100
  libpostproc    54.  2.100 / 54.  2.100
Input #0, yuv4mpegpipe, from 'Input/y4m/sintel.y4m':
  Duration: 00:00:20.83, start: 0.000000, bitrate: 2057307 kb/s
    Stream #0:0: Video: rawvideo (I420 / 0x30323449), yuv420p(progressive), 4096x1744, SAR 1:1 DAR 256:109, 24 fps, 24 tbr, 24 tbn, 24 tbc
[libx264 @ 0x3e36120] using SAR=1/1
[libx264 @ 0x3e36120] using cpu capabilities: MMX2 SSE2Fast SSSE3 SSE4.2 AVX FMA3 AVX2 LZCNT BMI2
[libx264 @ 0x3e36120] profile High, level 5.1
[libx264 @ 0x3e36120] 264 - core 148 - H.264/MPEG-4 AVC codec - Copyleft 2003-2016 - http://www.videolan.org/x264.html - options: cabac=1 ref=2 deblock=1:0:0 analyse=0x3:0x113 me=hex subme=6 psy=1 psy_rd=1.00:0.00 mixed_ref=1 me_range=16 chroma_me=1 trellis=1 8x8dct=1 cqm=0 deadzone=21,11 fast_pskip=1 chroma_qp_offset=-2 threads=6 lookahead_threads=1 sliced_threads=0 nr=0 decimate=1 interlaced=0 bluray_compat=0 constrained_intra=0 bframes=3 b_pyramid=2 b_adapt=1 b_bias=0 direct=1 weightb=1 open_gop=0 weightp=1 keyint=250 keyint_min=24 scenecut=40 intra_refresh=0 rc_lookahead=30 rc=abr mbtree=1 bitrate=4000 ratetol=1.0 qcomp=0.60 qpmin=0 qpmax=69 qpstep=4 ip_ratio=1.40 aq=1:1.00
Output #0, matroska, to 'Output/x264/encoded/sintelfast4000k.mkv':
  Metadata:
    encoder         : Lavf57.57.100
    Stream #0:0: Video: h264 (libx264) (H264 / 0x34363248), yuv420p, 4096x1744 [SAR 1:1 DAR 256:109], q=-1--1, 4000 kb/s, 24 fps, 1k tbn, 24 tbc
    Metadata:
      encoder         : Lavc57.66.101 libx264
    Side data:
      cpb: bitrate max/min/avg: 0/0/4000000 buffer size: 0 vbv_delay: -1
Stream mapping:
  Stream #0:0 -> #0:0 (rawvideo (native) -> h264 (libx264))
Press [q] to stop, [?] for help
frame=   10 fps=0.0 q=0.0 size=       0kB time=00:00:00.00 bitrate=N/A speed=   0x    frame=   16 fps= 15 q=0.0 size=       0kB time=00:00:00.00 bitrate=N/A speed=   0x    frame=   19 fps= 10 q=0.0 size=       0kB time=00:00:00.00 bitrate=N/A speed=   0x    frame=   20 fps=4.1 q=0.0 size=       0kB time=00:00:00.00 bitrate=N/A speed=   0x    frame=   21 fps=3.2 q=0.0 size=       0kB time=00:00:00.00 bitrate=N/A speed=   0x    frame=   22 fps=2.3 q=0.0 size=       0kB time=00:00:00.00 bitrate=N/A speed=   0x    frame=   26 fps=2.6 q=0.0 size=       0kB time=00:00:00.00 bitrate=N/A speed=   0x    frame=   35 fps=3.3 q=0.0 size=       0kB time=00:00:00.00 bitrate=N/A speed=   0x    frame=   37 fps=3.0 q=0.0 size=       0kB time=00:00:00.00 bitrate=N/A speed=   0x    frame=   43 fps=3.3 q=33.0 size=       1kB time=00:00:00.00 bitrate=5872.0kbits/s speed=7.69e-05x    frame=   47 fps=3.4 q=50.0 size=       1kB time=00:00:00.16 bitrate=  35.0kbits/s speed=0.0123x    frame=   54 fps=3.8 q=51.0 size=       1kB time=00:00:00.45 bitrate=  12.8kbits/s speed=0.0321x    frame=   61 fps=4.1 q=52.0 size=       1kB time=00:00:00.75 bitrate=   7.8kbits/s speed=0.0504x    frame=   68 fps=4.4 q=51.0 size=       1kB time=00:00:01.04 bitrate=   5.6kbits/s speed=0.0677x    frame=   75 fps=4.7 q=50.0 size=       1kB time=00:00:01.33 bitrate=   4.4kbits/s speed=0.0838x    frame=   82 fps=5.0 q=50.0 size=       1kB time=00:00:01.62 bitrate=   3.6kbits/s speed=0.099x    frame=   90 fps=5.3 q=49.0 size=       1kB time=00:00:01.95 bitrate=   3.0kbits/s speed=0.116x    frame=   97 fps=5.6 q=49.0 size=       1kB time=00:00:02.25 bitrate=   2.6kbits/s speed=0.129x    frame=  103 fps=5.7 q=49.0 size=       1kB time=00:00:02.50 bitrate=   2.3kbits/s speed=0.139x    frame=  109 fps=5.9 q=48.0 size=       1kB time=00:00:02.75 bitrate=   2.1kbits/s speed=0.148x    frame=  115 fps=6.0 q=48.0 size=       1kB time=00:00:03.00 bitrate=   2.0kbits/s speed=0.157x    frame=  121 fps=6.1 q=48.0 size=       1kB time=00:00:03.25 bitrate=   1.8kbits/s speed=0.165x    frame=  128 fps=6.3 q=48.0 size=       1kB time=00:00:03.54 bitrate=   1.7kbits/s speed=0.174x    frame=  134 fps=6.4 q=48.0 size=       1kB time=00:00:03.79 bitrate=   1.5kbits/s speed=0.182x    frame=  142 fps=6.7 q=48.0 size=    2278kB time=00:00:04.12 bitrate=4521.9kbits/s speed=0.193x    frame=  147 fps=6.7 q=48.0 size=    2278kB time=00:00:04.33 bitrate=4304.9kbits/s speed=0.198x    frame=  154 fps=6.9 q=48.0 size=    2278kB time=00:00:04.62 bitrate=4033.2kbits/s speed=0.206x    frame=  162 fps=7.0 q=48.0 size=    2278kB time=00:00:04.95 bitrate=3762.4kbits/s speed=0.215x    frame=  170 fps=7.2 q=47.0 size=    2278kB time=00:00:05.29 bitrate=3524.9kbits/s speed=0.224x    frame=  177 fps=7.3 q=48.0 size=    2278kB time=00:00:05.58 bitrate=3341.2kbits/s speed=0.231x    frame=  185 fps=7.5 q=47.0 size=    2278kB time=00:00:05.91 bitrate=3152.7kbits/s speed=0.24x    frame=  192 fps=7.6 q=45.0 size=    2278kB time=00:00:06.20 bitrate=3004.9kbits/s speed=0.246x    frame=  202 fps=7.8 q=47.0 size=    3407kB time=00:00:06.62 bitrate=4212.8kbits/s speed=0.257x    frame=  209 fps=7.9 q=47.0 size=    3407kB time=00:00:06.91 bitrate=4035.0kbits/s speed=0.263x    frame=  215 fps=8.0 q=47.0 size=    3407kB time=00:00:07.16 bitrate=3894.3kbits/s speed=0.267x    frame=  221 fps=8.0 q=47.0 size=    3407kB time=00:00:07.41 bitrate=3763.0kbits/s speed=0.27x    frame=  228 fps=8.2 q=47.0 size=    3832kB time=00:00:07.70 bitrate=4072.5kbits/s speed=0.276x    frame=  236 fps=8.3 q=46.0 size=    3832kB time=00:00:08.04 bitrate=3903.3kbits/s speed=0.282x    frame=  242 fps=8.3 q=46.0 size=    3832kB time=00:00:08.29 bitrate=3785.7kbits/s speed=0.286x    frame=  250 fps=8.4 q=46.0 size=    3832kB time=00:00:08.62 bitrate=3639.5kbits/s speed=0.291x    frame=  258 fps=8.6 q=46.0 size=    3832kB time=00:00:08.95 bitrate=3504.3kbits/s speed=0.297x    frame=  265 fps=8.6 q=46.0 size=    3832kB time=00:00:09.25 bitrate=3393.6kbits/s speed=0.302x    frame=  273 fps=8.8 q=46.0 size=    3832kB time=00:00:09.58 bitrate=3275.7kbits/s speed=0.307x    frame=  280 fps=8.8 q=45.0 size=    3832kB time=00:00:09.87 bitrate=3178.9kbits/s speed=0.312x    frame=  288 fps=8.9 q=45.0 size=    3832kB time=00:00:10.20 bitrate=3075.2kbits/s speed=0.317x    frame=  297 fps=9.0 q=45.0 size=    3832kB time=00:00:10.58 bitrate=2966.2kbits/s speed=0.322x    frame=  302 fps=9.0 q=45.0 size=    3832kB time=00:00:10.79 bitrate=2908.8kbits/s speed=0.321x    frame=  311 fps=9.1 q=45.0 size=    5085kB time=00:00:11.16 bitrate=3729.7kbits/s speed=0.327x    frame=  320 fps=9.2 q=45.0 size=    5085kB time=00:00:11.54 bitrate=3608.5kbits/s speed=0.332x    frame=  328 fps=9.3 q=44.0 size=    5085kB time=00:00:11.87 bitrate=3507.4kbits/s speed=0.336x    frame=  337 fps=9.4 q=44.0 size=    5085kB time=00:00:12.25 bitrate=3400.0kbits/s speed=0.342x    frame=  348 fps=9.6 q=44.0 size=    5085kB time=00:00:12.70 bitrate=3277.5kbits/s speed=0.35x    frame=  359 fps=9.7 q=43.0 size=    5085kB time=00:00:13.16 bitrate=3163.2kbits/s speed=0.356x    frame=  370 fps=9.9 q=42.0 size=    5085kB time=00:00:13.62 bitrate=3056.9kbits/s speed=0.363x    frame=  378 fps=9.9 q=42.0 size=    5085kB time=00:00:13.95 bitrate=2984.0kbits/s speed=0.367x    frame=  387 fps= 10 q=42.0 size=    5085kB time=00:00:14.33 bitrate=2905.9kbits/s speed=0.371x    frame=  395 fps= 10 q=41.0 size=    5085kB time=00:00:14.66 bitrate=2839.7kbits/s speed=0.373x    frame=  407 fps= 10 q=41.0 size=    6144kB time=00:00:15.16 bitrate=3318.1kbits/s speed=0.379x    frame=  414 fps= 10 q=41.0 size=    6144kB time=00:00:15.45 bitrate=3255.7kbits/s speed=0.381x    frame=  420 fps= 10 q=41.0 size=    6144kB time=00:00:15.70 bitrate=3203.9kbits/s speed=0.382x    frame=  429 fps= 10 q=41.0 size=    6144kB time=00:00:16.08 bitrate=3129.2kbits/s speed=0.386x    frame=  436 fps= 10 q=41.0 size=    6144kB time=00:00:16.37 bitrate=3073.4kbits/s speed=0.388x    frame=  442 fps= 10 q=41.0 size=    6144kB time=00:00:16.62 bitrate=3027.2kbits/s speed=0.389x    frame=  451 fps= 10 q=41.0 size=    6144kB time=00:00:17.00 bitrate=2960.4kbits/s speed=0.393x    frame=  459 fps= 10 q=41.0 size=    7236kB time=00:00:17.33 bitrate=3419.5kbits/s speed=0.395x    frame=  465 fps= 10 q=41.0 size=    7236kB time=00:00:17.58 bitrate=3370.9kbits/s speed=0.396x    frame=  472 fps= 10 q=41.0 size=    7236kB time=00:00:17.87 bitrate=3315.8kbits/s speed=0.397x    frame=  481 fps= 11 q=41.0 size=    7236kB time=00:00:18.25 bitrate=3247.7kbits/s speed=0.401x    frame=  489 fps= 11 q=40.0 size=    7236kB time=00:00:18.58 bitrate=3189.5kbits/s speed=0.403x    frame=  497 fps= 11 q=40.0 size=    7236kB time=00:00:18.91 bitrate=3133.2kbits/s speed=0.404x    frame=  500 fps= 10 q=-1.0 Lsize=    8578kB time=00:00:20.70 bitrate=3393.3kbits/s speed=0.424x    
video:8574kB audio:0kB subtitle:0kB other streams:0kB global headers:0kB muxing overhead: 0.054195%
bench: utime=137.224s
bench: maxrss=1325340kB
[libx264 @ 0x3e36120] frame I:8     Avg QP:35.68  size: 56743
[libx264 @ 0x3e36120] frame P:269   Avg QP:41.17  size: 19377
[libx264 @ 0x3e36120] frame B:223   Avg QP:38.76  size: 13957
[libx264 @ 0x3e36120] consecutive B-frames: 37.0%  8.4%  6.6% 48.0%
[libx264 @ 0x3e36120] mb I  I16..4: 24.8% 74.0%  1.2%
[libx264 @ 0x3e36120] mb P  I16..4: 12.0% 27.5%  0.1%  P16..4: 10.3%  0.6%  0.2%  0.0%  0.0%    skip:49.3%
[libx264 @ 0x3e36120] mb B  I16..4:  6.4%  4.5%  0.0%  B16..8: 11.6%  0.6%  0.0%  direct: 3.6%  skip:73.2%  L0:43.3% L1:54.8% BI: 1.8%
[libx264 @ 0x3e36120] final ratefactor: 37.79
[libx264 @ 0x3e36120] 8x8 transform intra:64.8% inter:95.1%
[libx264 @ 0x3e36120] coded y,uvDC,uvAC intra: 7.1% 16.1% 0.3% inter: 1.6% 1.7% 0.0%
[libx264 @ 0x3e36120] i16 v,h,dc,p: 40% 33%  8% 18%
[libx264 @ 0x3e36120] i8 v,h,dc,ddl,ddr,vr,hd,vl,hu: 21% 10% 64%  1%  1%  1%  1%  1%  1%
[libx264 @ 0x3e36120] i4 v,h,dc,ddl,ddr,vr,hd,vl,hu: 21% 27% 13%  6%  9%  6%  9%  4%  5%
[libx264 @ 0x3e36120] i8c dc,h,v,p: 92%  4%  4%  0%
[libx264 @ 0x3e36120] Weighted P-Frames: Y:0.7% UV:0.0%
[libx264 @ 0x3e36120] ref P L0: 72.3% 27.7%
[libx264 @ 0x3e36120] ref B L0: 83.5% 16.5%
[libx264 @ 0x3e36120] ref B L1: 96.7%  3.3%
[libx264 @ 0x3e36120] kb/s:3371.00
